<svg version="1.2" xmlns="http://www.w3.org/2000/svg" viewBox="0 0 1270 1515" width="1270" height="1515">
	<title>mask-icon-svg</title>
	<style>
		.s0 { fill: #ffffff } 
	</style>
	<path id="Layer" fill-rule="evenodd" class="s0" d="m1 0.8h742.6c140.5 0 248.9 34.1 325.2 96.4 86.3 70.1 132.5 174.6 132.5 299 0 144.6-58.3 234.9-178.7 291.1v6c156.6 52.2 246.9 192.7 246.9 363.3 0 162.6-62.3 289.1-164.6 365.3-86.3 62.2-198.7 92.3-347.3 92.3h-756.6zm668.4 592.2c80.3 0 138.5-44.2 138.5-132.5 0-86.2-60.2-128.5-140.5-128.5h-254.9v261zm38.1 586.2c90.3 0 156.6-54.2 156.6-154.7 0-104.3-72.3-154.5-158.6-154.5h-293.1v309.2z"/>
</svg>